<?xml version="1.0" encoding="iso-8859-1"?>
<!-- Generator: Adobe Illustrator 19.0.0, SVG Export Plug-In . SVG Version: 6.00 Build 0)  -->
<svg version="1.1" id="Layer_1" xmlns="http://www.w3.org/2000/svg" xmlns:xlink="http://www.w3.org/1999/xlink" x="0px" y="0px"
	 viewBox="0 0 511.999 511.999" style="enable-background:new 0 0 511.999 511.999;" xml:space="preserve">
<g>
	<g>
		<path d="M203.827,224.71c-11.342,0-20.573,9.325-20.573,20.839c0,11.513,9.23,20.846,20.573,20.846
			c11.357,0,20.586-9.333,20.586-20.846C224.412,234.035,215.183,224.71,203.827,224.71z"/>
	</g>
</g>
<g>
	<g>
		<path d="M308.016,224.547c-11.452,0-20.742,9.403-20.742,21.002s9.29,21.002,20.742,21.002c11.438,0,20.728-9.403,20.728-21.002
			C328.743,233.95,319.453,224.547,308.016,224.547z"/>
	</g>
</g>
<g>
	<g>
		<path d="M504.832,133.982l-5.696-12.814l-13.367,4.238c-35.29,11.188-76.463,24.106-94.397,29.726
			c-8.102-7.442-17.566-13.828-28.328-19.089c-9.809-4.795-20.155-8.414-30.603-11.149V96.835
			c15.38-6.222,26.264-21.304,26.264-38.888c0-23.125-18.815-41.94-41.94-41.94s-41.94,18.813-41.94,41.94
			c0,17.584,10.883,32.666,26.264,38.888v22.227c-16.522-1.991-32.167-2.395-45.091-2.395c-12.922,0-28.569,0.406-45.091,2.395
			V96.835c15.38-6.222,26.264-21.304,26.264-38.888c0-23.125-18.815-41.94-41.94-41.94c-23.125,0-41.94,18.813-41.94,41.94
			c0,17.584,10.883,32.666,26.264,38.888v28.059c-10.448,2.735-20.794,6.354-30.603,11.149
			c-10.762,5.261-20.225,11.647-28.328,19.089c-17.934-5.619-59.107-18.539-94.397-29.726l-13.367-4.238l-5.696,12.814
			c-6.844,15.397-12.264,38.093,0.779,58.777c17.003,26.965,56.344,35.365,78.242,37.977c-0.314,4.086-0.488,8.26-0.488,12.539
			c0,38.811,8.951,62.639,20.285,92.805c3.783,10.069,7.695,20.482,11.748,32.659c10.498,31.548,23.188,64.075,44.776,88.259
			c23.421,26.24,54.003,38.995,93.492,38.995s70.07-12.755,93.492-38.995c21.588-24.185,34.279-56.712,44.776-88.259
			c4.053-12.177,7.965-22.589,11.748-32.659c11.334-30.167,20.285-53.995,20.285-92.805c0-4.28-0.174-8.453-0.488-12.539
			c21.898-2.612,61.239-11.011,78.242-37.977C517.096,172.075,511.677,149.38,504.832,133.982z M92.13,199.835
			c-17.964-1.977-47.904-8.317-57.666-23.797c-1.215-1.927-4.211-6.678-2.783-16.018c25.057,7.921,50.987,16.068,68.294,21.497
			C96.847,187.261,94.234,193.375,92.13,199.835z M316.766,47.36c5.838,0,10.588,4.749,10.588,10.588
			c0,5.838-4.75,10.587-10.588,10.587c-5.838,0-10.588-4.749-10.588-10.587C306.178,52.109,310.928,47.36,316.766,47.36z
			 M195.232,47.36c5.838,0,10.588,4.749,10.588,10.588c0,5.838-4.75,10.587-10.588,10.587c-5.838,0-10.588-4.749-10.588-10.587
			C184.645,52.109,189.395,47.36,195.232,47.36z M255.998,464.641c-47.832,0-73.028-22.413-92.589-64.522
			c21.776-18.864,56.195-30.297,92.589-30.297c36.394,0,70.812,11.433,92.589,30.298
			C329.026,442.229,303.831,464.641,255.998,464.641z M376.664,325.053c-3.705,9.863-7.905,21.042-12.146,33.786
			c-1.246,3.742-2.496,7.373-3.754,10.927c-27.21-19.867-64.69-31.298-104.766-31.298s-77.556,11.43-104.766,31.297
			c-1.258-3.554-2.509-7.185-3.754-10.926c-4.241-12.744-8.441-23.923-12.146-33.786c-10.614-28.252-18.283-48.663-18.283-81.778
			c0-38.181,14.939-64.042,45.67-79.065c22.289-10.895,52.8-16.191,93.278-16.191s70.989,5.296,93.278,16.191
			c30.73,15.023,45.67,40.884,45.67,79.065C394.947,276.391,387.278,296.803,376.664,325.053z M477.549,176.013
			c-9.689,15.409-39.698,21.79-57.688,23.801c-2.103-6.452-4.712-12.56-7.837-18.298c17.306-5.429,43.238-13.577,68.295-21.497
			C481.744,169.342,478.76,174.087,477.549,176.013z"/>
	</g>
</g>
<g>
	<g>
		<path d="M223.046,396.365c-8.924,0-16.186,7.336-16.186,16.396c0,9.058,7.262,16.401,16.186,16.401
			c8.935,0,16.197-7.344,16.197-16.401C239.243,403.702,231.982,396.365,223.046,396.365z"/>
	</g>
</g>
<g>
	<g>
		<path d="M288.83,396.238c-9.011,0-16.32,7.398-16.32,16.524s7.309,16.524,16.32,16.524c8.999,0,16.308-7.398,16.308-16.524
			S297.829,396.238,288.83,396.238z"/>
	</g>
</g>
<g>
</g>
<g>
</g>
<g>
</g>
<g>
</g>
<g>
</g>
<g>
</g>
<g>
</g>
<g>
</g>
<g>
</g>
<g>
</g>
<g>
</g>
<g>
</g>
<g>
</g>
<g>
</g>
<g>
</g>
</svg>
