<?xml version="1.0" encoding="iso-8859-1"?>
<!-- Generator: Adobe Illustrator 19.0.0, SVG Export Plug-In . SVG Version: 6.00 Build 0)  -->
<svg version="1.1" id="Layer_1" xmlns="http://www.w3.org/2000/svg" xmlns:xlink="http://www.w3.org/1999/xlink" x="0px" y="0px"
	 viewBox="0 0 511.999 511.999" style="enable-background:new 0 0 511.999 511.999;" xml:space="preserve">
<g>
	<g>
		<g>
			<path d="M223.054,362.153c-8.922,0-16.183,7.335-16.183,16.393c0,9.056,7.261,16.399,16.183,16.399
				c8.934,0,16.194-7.341,16.194-16.399C239.247,369.488,231.988,362.153,223.054,362.153z"/>
			<path d="M288.825,362.025c-9.009,0-16.317,7.397-16.317,16.521c0,9.124,7.308,16.521,16.317,16.521
				c8.998,0,16.306-7.397,16.306-16.521C305.131,369.421,297.824,362.025,288.825,362.025z"/>
			<path d="M214.131,253.795c0-11.513-9.227-20.836-20.582-20.836c-11.34,0-20.569,9.324-20.569,20.836
				c0,11.511,9.229,20.843,20.569,20.843C204.904,274.637,214.131,265.305,214.131,253.795z"/>
			<path d="M318.296,232.797c-11.45,0-20.738,9.401-20.738,20.998s9.288,20.998,20.738,20.998c11.436,0,20.725-9.401,20.725-20.998
				S329.733,232.797,318.296,232.797z"/>
			<path d="M448.956,176.148C421.294,96.184,345.251,38.6,256.001,38.6S90.706,96.185,63.044,176.148
				c-37.902,7.297-65.441,41.9-62.879,81.4c1.345,20.736,10.685,39.707,26.298,53.419c12.756,11.201,28.454,17.783,45.078,19.089
				c19.97,42.149,54.159,77.048,97.914,97.549c18.883,27.625,50.63,45.794,86.544,45.794c35.914,0,67.661-18.169,86.544-45.794
				c43.754-20.501,77.943-55.4,97.913-97.549c16.624-1.306,32.323-7.888,45.078-19.089c15.614-13.712,24.954-32.683,26.299-53.419
				C514.397,218.049,486.857,183.445,448.956,176.148z M47.148,287.413c-9.323-8.187-14.899-19.514-15.702-31.895
				c-1.168-18.002,8.141-34.297,22.672-42.944c-1.462,9.837-2.229,19.897-2.229,30.134c0,17.872,2.34,35.375,6.778,52.154
				C54.534,292.989,50.655,290.493,47.148,287.413z M333.47,313.046l-21.767,2.972l9.894,19.616
				c5.189,10.288,7.82,21.392,7.82,33.002c0,40.483-32.935,73.417-73.417,73.417c-40.482,0-73.416-32.934-73.416-73.417
				c0-11.611,2.631-22.715,7.82-33.003l9.893-19.615l-21.767-2.972c-30.296-4.138-53.143-30.36-53.143-60.994
				c0-33.949,27.62-61.569,61.569-61.569c23.417,0,44.509,13.011,55.041,33.955l14.002,27.841l14.003-27.841
				c10.534-20.944,31.625-33.955,55.042-33.955c33.949,0,61.569,27.62,61.569,61.569
				C386.613,282.686,363.766,308.908,333.47,313.046z M360.076,380.61c0.449-3.931,0.689-7.925,0.689-11.974
				c0-10.026-1.378-19.794-4.114-29.204c36.005-13.076,61.31-47.786,61.31-87.381c0-51.234-41.682-92.916-92.916-92.916
				c-26.864,0-51.7,11.344-69.044,30.666c-17.344-19.321-42.18-30.666-69.044-30.666c-51.235,0-92.916,41.682-92.916,92.916
				c0,39.594,25.304,74.305,61.31,87.38c-2.734,9.41-4.113,19.178-4.113,29.204c0,4.049,0.239,8.044,0.689,11.974
				c-42.632-32.215-68.689-83.001-68.689-137.902c0-95.261,77.501-172.763,172.763-172.763s172.763,77.501,172.763,172.763
				C428.763,297.61,402.707,348.394,360.076,380.61z M480.554,255.52c-0.804,12.381-6.378,23.707-15.701,31.893
				c-3.507,3.079-7.386,5.576-11.521,7.45c4.438-16.779,6.778-34.282,6.778-52.154c0-10.237-0.767-20.297-2.229-30.134
				C472.413,221.223,481.722,237.518,480.554,255.52z"/>
		</g>
	</g>
</g>
<g>
</g>
<g>
</g>
<g>
</g>
<g>
</g>
<g>
</g>
<g>
</g>
<g>
</g>
<g>
</g>
<g>
</g>
<g>
</g>
<g>
</g>
<g>
</g>
<g>
</g>
<g>
</g>
<g>
</g>
</svg>
